<svg width="40" height="40" viewBox="0 0 40 40" fill="none" xmlns="http://www.w3.org/2000/svg">
<path d="M20 33C20 33 7.5 26 7.5 17.5C7.5 15.9974 8.02062 14.5411 8.97328 13.3791C9.92593 12.217 11.2518 11.4209 12.7252 11.1262C14.1987 10.8315 15.7288 11.0565 17.0551 11.7627C18.3814 12.469 19.4221 13.613 20 15V15C20.5779 13.613 21.6186 12.469 22.9449 11.7627C24.2712 11.0565 25.8013 10.8315 27.2748 11.1262C28.7482 11.4209 30.0741 12.217 31.0267 13.3791C31.9794 14.5411 32.5 15.9974 32.5 17.5C32.5 26 20 33 20 33Z" stroke="#282828" stroke-linecap="round" stroke-linejoin="round"/>
<circle cx="20" cy="20" r="19.5" stroke="#282828"/>
</svg>
