<svg width="220" height="245" viewBox="0 0 220 245" fill="none" xmlns="http://www.w3.org/2000/svg">
<path d="M76.4469 196.721L74.9249 198.055L75.3925 196.409L76.4469 196.721Z" fill="#1D1D1B"/>
<path d="M114.755 163.223L103.226 173.308C102.43 172.084 101.972 170.639 101.972 169.073C101.972 168.582 102.022 168.1 102.102 167.638L109.334 161.316C109.443 161.306 109.562 161.306 109.672 161.306C111.612 161.306 113.392 162.039 114.745 163.233L114.755 163.223Z" fill="#1D1D1B"/>
<path d="M109.333 161.306L102.102 167.628C102.748 164.136 105.713 161.467 109.333 161.306Z" fill="white"/>
<path d="M116.466 165.391C117.053 166.484 117.381 167.739 117.381 169.063C117.381 173.359 113.929 176.831 109.682 176.831C106.976 176.831 104.608 175.426 103.226 173.308L114.755 163.223C114.924 163.373 115.093 163.534 115.252 163.705C115.73 164.206 116.138 164.768 116.466 165.391Z" fill="white"/>
<path d="M214.857 184.217C217.752 196.761 219.333 206.977 219.751 209.756C207.874 211.312 195.37 212.707 182.269 213.841C185.164 191.713 186.248 180.604 185.532 180.484C185.512 180.484 185.502 180.484 185.482 180.484L186.904 175.897L214.857 184.217Z" fill="white"/>
<path d="M214.857 184.217L186.904 175.897L198.672 138.004C206.083 150.89 211.405 169.214 214.847 184.227L214.857 184.217Z" fill="#282828"/>
<path d="M214.559 72.5848C214.967 73.0564 215.156 73.6385 215.156 74.2205C215.156 74.923 214.867 75.6255 214.3 76.1172L170.242 114.673C168.591 113.809 166.98 113.007 165.408 112.244L211.037 72.3239C212.082 71.4107 213.663 71.5311 214.559 72.5848Z" fill="#1D1D1B"/>
<path d="M198.682 137.994L186.914 175.887L150.695 165.1C148.139 162.721 144.448 159.691 139.703 156.871L145.99 135.887L167.885 116.73L180.449 120.362C182.547 121.607 185.174 123.213 187.432 124.728C191.62 127.528 195.36 132.214 198.682 137.994Z" fill="white"/>
<path d="M186.914 175.887L185.492 180.473C185.154 180.644 184.487 182.802 183.492 186.926L174.957 214.423C164.552 215.225 153.789 215.868 142.678 216.299L123.598 210.659L131.129 185.521C144.747 180.112 152.884 170.98 154.545 169.043C153.968 168.381 152.675 166.926 150.705 165.1L186.924 175.887H186.914Z" fill="#282828"/>
<path d="M174.938 214.433L183.473 186.946C182.15 192.486 180.23 201.578 177.743 214.212C176.808 214.292 175.883 214.362 174.938 214.433Z" fill="white"/>
<path d="M176.579 118.105C176.579 118.105 178.22 119.028 180.449 120.363L167.885 116.73L170.242 114.673C172.301 115.736 174.41 116.88 176.579 118.105Z" fill="#282828"/>
<path d="M170.242 114.673L167.885 116.73L162.165 115.084L165.408 112.244C166.98 113.007 168.601 113.809 170.242 114.673Z" fill="#1D1D1B"/>
<path d="M167.875 116.74L145.99 135.887L148.686 126.875V126.865L162.155 115.084L167.875 116.74Z" fill="#1D1D1B"/>
<path d="M165.398 112.244L162.155 115.084L153.013 112.435L154.525 107.377C157.828 108.732 161.479 110.347 165.398 112.244Z" fill="#282828"/>
<path d="M153.013 112.445L162.155 115.084L148.686 126.865L153.013 112.445Z" fill="white"/>
<path d="M156.137 54.9328C156.296 61.0844 150.377 67.527 141.474 68.7413C146.866 62.5496 150.447 54.7321 151.382 46.1018C152.635 47.1756 156.007 50.417 156.137 54.9429V54.9328Z" fill="#D9D9D9"/>
<path d="M154.525 107.387L153.013 112.445L131.099 106.123L118.893 103.242C121.151 102.801 123.081 102.249 124.643 101.717C125.1 101.466 125.538 101.195 125.946 100.904C134.003 101.717 141.116 103.072 147.114 104.527C149.313 105.33 151.8 106.273 154.525 107.387Z" fill="white"/>
<path d="M153.013 112.445L148.686 126.865L122.285 149.966C118.923 149.234 115.322 148.762 111.482 148.662C107.056 148.551 102.907 148.953 99.0577 149.716L89.5081 146.876L91.0798 141.356L102.102 103.353C104.38 103.764 106.986 104.055 109.851 104.085C113.243 104.105 116.297 103.744 118.913 103.232L131.119 106.112L153.033 112.435L153.013 112.445Z" fill="#282828"/>
<path d="M151.382 46.0918C150.437 54.7221 146.856 62.5496 141.474 68.7313C141.394 68.7513 141.325 68.7513 141.245 68.7614C140.897 69.1828 140.519 69.6645 140.131 70.1864C135.794 74.7123 130.442 78.2446 124.434 80.3922C120.146 81.9376 115.531 82.7705 110.716 82.7705C105.414 82.7705 100.341 81.7469 95.6855 79.9005C89.707 77.5121 84.4149 73.7388 80.1971 68.9821C80.1374 68.9019 80.0778 68.8316 80.0181 68.7614H80.0081C74.5768 62.5295 70.9757 54.6418 70.0506 45.9413C69.9014 44.4862 69.8218 43.0009 69.8218 41.5057C69.8218 18.7257 88.1353 0.250881 110.726 0.250881C133.317 0.250881 151.63 18.7257 151.63 41.5157C151.63 43.0611 151.541 44.5965 151.382 46.1018V46.0918Z" fill="#1D1D1B"/>
<path d="M150.685 165.1C152.655 166.936 153.938 168.381 154.525 169.043C152.864 170.98 144.727 180.112 131.109 185.521L138.331 161.427L150.695 165.1H150.685Z" fill="#D9D9D9"/>
<path d="M150.685 165.1L138.321 161.427L139.683 156.881C144.438 159.691 148.129 162.721 150.676 165.11L150.685 165.1Z" fill="#D9D9D9"/>
<path d="M148.686 126.875L145.98 135.887L128.075 151.562C126.234 150.95 124.305 150.408 122.295 149.966L148.696 126.865L148.686 126.875Z" fill="#1D1D1B"/>
<path d="M128.075 151.562L145.98 135.887L139.693 156.871C136.341 154.884 132.452 153.007 128.065 151.562H128.075Z" fill="#282828"/>
<path d="M123.578 210.659L142.658 216.299C135.804 216.57 128.821 216.751 121.718 216.851L123.578 210.659Z" fill="white"/>
<path d="M124.444 80.4123C130.442 78.2547 135.804 74.7323 140.141 70.2064C138.291 72.7052 136.082 76.2978 134.521 80.9843C132.989 85.5603 132.591 89.6246 132.531 92.5047C132.223 92.3341 131.905 92.1635 131.586 91.9829C131.785 90.5378 131.686 89.0927 131.298 87.7079C129.895 82.7705 125.16 80.7033 124.444 80.4022V80.4123Z" fill="#D9D9D9"/>
<path d="M139.693 156.881L138.331 161.427L126.274 157.834C125.608 156.851 124.862 155.947 124.036 155.104H124.026L128.055 151.562C132.442 153.017 136.331 154.894 139.684 156.871L139.693 156.881Z" fill="#D9D9D9"/>
<path d="M138.331 161.427L131.109 185.521C125.319 187.819 118.545 189.445 110.846 189.555C110.577 189.555 110.308 189.555 110.04 189.555V188.943C120.912 188.923 129.716 180.032 129.716 169.053C129.716 165.32 128.701 161.828 126.931 158.848C126.722 158.506 126.513 158.165 126.284 157.834L138.341 161.427H138.331Z" fill="#D9D9D9"/>
<path d="M132.531 92.5047C141.166 97.3517 146.289 103.493 147.114 104.527C141.116 103.072 134.003 101.727 125.946 100.904C129.149 98.6663 131.129 95.3547 131.576 91.9829C131.895 92.1535 132.213 92.3241 132.521 92.5047H132.531Z" fill="white"/>
<path d="M131.298 87.7079C131.696 89.0927 131.785 90.5378 131.586 91.9829C125.18 88.5709 116.973 85.9517 107.225 86.5237C99.8336 86.9552 93.5567 89.1028 88.4636 91.7922C88.0458 86.7646 90.9604 81.9376 95.7054 79.9105C100.361 81.757 105.424 82.7806 110.736 82.7806C115.551 82.7806 120.166 81.9477 124.454 80.4022C125.17 80.7033 129.895 82.7705 131.308 87.7079H131.298Z" fill="#1D1D1B"/>
<path d="M131.109 185.521L123.578 210.659L76.4568 196.721L89.1798 185.591C95.1383 187.94 102.122 189.565 110.03 189.565C110.298 189.565 110.567 189.565 110.836 189.565C118.535 189.465 125.309 187.829 131.099 185.531L131.109 185.521Z" fill="white"/>
<path d="M128.065 151.562L124.036 155.094C122.852 153.87 121.509 152.816 120.037 151.933L122.285 149.966C124.295 150.408 126.224 150.95 128.065 151.562Z" fill="#1D1D1B"/>
<path d="M126.921 158.848C128.691 161.828 129.706 165.33 129.706 169.053C129.706 180.032 120.903 188.923 110.02 188.943H109.99C103.594 188.943 97.9038 185.862 94.2928 181.096L103.206 173.298C104.579 175.426 106.956 176.821 109.662 176.821C113.919 176.821 117.361 173.338 117.361 169.053C117.361 167.729 117.033 166.474 116.446 165.381L126.911 158.848H126.921Z" fill="#1D1D1B"/>
<path d="M126.921 158.848L116.456 165.381C116.128 164.758 115.72 164.196 115.242 163.695L122.415 156.68L126.264 157.834C126.493 158.165 126.702 158.506 126.911 158.848H126.921Z" fill="#1D1D1B"/>
<path d="M126.274 157.834L122.424 156.68L124.046 155.094C124.872 155.937 125.618 156.851 126.284 157.824L126.274 157.834Z" fill="#1D1D1B"/>
<path d="M88.941 94.2408C88.6924 93.448 88.5332 92.6251 88.4636 91.7922C93.5567 89.1028 99.8436 86.9552 107.225 86.5237C116.973 85.9517 125.18 88.5709 131.586 91.9829C131.139 95.3547 129.159 98.6563 125.956 100.904C121.559 100.453 116.874 100.172 111.94 100.101C111.532 100.101 111.134 100.101 110.736 100.101C107.951 100.081 105.255 100.152 102.629 100.272C99.6943 100.402 96.8692 100.623 94.1436 100.894C91.6468 99.3889 89.7866 97.0105 88.9311 94.2408H88.941Z" fill="#1D1D1B"/>
<path d="M125.956 100.904C125.538 101.195 125.1 101.466 124.653 101.717C123.091 102.239 121.161 102.801 118.903 103.242L110.736 101.316V100.091C111.144 100.091 111.542 100.091 111.95 100.091C116.884 100.152 121.569 100.443 125.966 100.894L125.956 100.904Z" fill="#1D1D1B"/>
<path d="M120.037 151.943C121.509 152.816 122.852 153.88 124.036 155.104L122.275 156.65L116.595 154.964L120.037 151.953V151.943Z" fill="#1D1D1B"/>
<path d="M123.578 210.659L121.718 216.851C118.038 216.911 114.337 216.931 110.587 216.942C96.531 216.952 82.9327 216.61 69.8218 215.978L74.915 198.065L76.437 196.731L123.558 210.669L123.578 210.659Z" fill="#282828"/>
<path d="M122.425 156.69L115.252 163.705C115.093 163.534 114.924 163.373 114.755 163.223L122.275 156.64L122.434 156.69H122.425Z" fill="#1D1D1B"/>
<path d="M122.275 149.976L120.027 151.943C117.083 150.187 113.661 149.174 109.99 149.174C107.284 149.174 104.708 149.726 102.36 150.719L99.0378 149.726C102.887 148.963 107.036 148.561 111.462 148.672C115.302 148.762 118.903 149.234 122.265 149.976H122.275Z" fill="#D9D9D9"/>
<path d="M122.265 156.64L114.745 163.223C113.392 162.029 111.611 161.296 109.672 161.296C109.552 161.296 109.443 161.296 109.333 161.306L116.585 154.954L122.265 156.64Z" fill="#1D1D1B"/>
<path d="M120.037 151.943L116.595 154.954L102.38 150.719C104.728 149.726 107.304 149.174 110.01 149.174C113.671 149.174 117.103 150.187 120.047 151.943H120.037Z" fill="#1D1D1B"/>
<path d="M110.726 101.316L118.893 103.242C116.277 103.754 113.233 104.115 109.831 104.095C106.966 104.075 104.36 103.784 102.082 103.363L102.679 101.316L102.629 100.262C105.255 100.142 107.951 100.071 110.736 100.091V101.316H110.726Z" fill="#1D1D1B"/>
<path d="M116.595 154.954L109.343 161.306C105.723 161.467 102.768 164.136 102.112 167.628L91.786 176.66C90.8211 174.322 90.2939 171.753 90.2939 169.063C90.2939 160.804 95.2776 153.73 102.38 150.719L116.595 154.954Z" fill="#1D1D1B"/>
<path d="M110.03 188.953V189.565C102.122 189.565 95.1384 187.94 89.1798 185.591L94.3028 181.106C97.9038 185.872 103.594 188.953 110 188.953H110.03Z" fill="#D9D9D9"/>
<path d="M103.226 173.298L94.3127 181.106C93.298 179.751 92.4425 178.256 91.786 176.66L102.112 167.628C102.022 168.1 101.982 168.572 101.982 169.063C101.982 170.629 102.44 172.084 103.236 173.298H103.226Z" fill="#1D1D1B"/>
<path d="M102.629 100.272L102.679 101.326L102.082 103.373C99.9033 102.981 98.0033 102.47 96.4415 101.978C95.6258 101.697 94.8598 101.336 94.1337 100.894C96.8493 100.623 99.6844 100.402 102.619 100.272H102.629Z" fill="#1D1D1B"/>
<path d="M99.0478 149.726L102.37 150.719C95.2677 153.73 90.284 160.804 90.284 169.063C90.284 171.753 90.8211 174.322 91.7761 176.66L84.1463 183.334C82.6144 182.561 81.1621 181.748 79.8092 180.915L87.6877 153.218C91.1196 151.763 94.9195 150.528 99.0478 149.716V149.726Z" fill="#D9D9D9"/>
<path d="M102.082 103.363L91.0599 141.366L89.4882 146.886L40.2876 132.234L44.5949 117.452C55.9053 111.15 65.8329 107.076 72.8758 104.527C78.8443 103.082 85.9966 101.717 94.1337 100.894C94.8499 101.336 95.6159 101.697 96.4415 101.978C97.9933 102.47 99.8933 102.981 102.082 103.373V103.363Z" fill="white"/>
<path d="M89.4981 146.886L99.0477 149.726C94.9095 150.538 91.1096 151.773 87.6876 153.228L89.4981 146.886Z" fill="#F5F5F5"/>
<path d="M94.3028 181.106L89.1798 185.591C87.4091 184.899 85.728 184.146 84.1463 183.344L91.7761 176.67C92.4326 178.266 93.2881 179.761 94.3028 181.116V181.106Z" fill="#1D1D1B"/>
<path d="M88.941 94.2408C89.7965 97.0005 91.6468 99.3788 94.1535 100.894C86.0164 101.717 78.8642 103.082 72.8956 104.527C74.0595 103.072 78.9736 97.1209 87.2897 92.4345C87.8369 93.0366 88.3939 93.6387 88.941 94.2508V94.2408Z" fill="white"/>
<path d="M89.4981 146.886L87.6877 153.228C74.8056 158.697 67.0266 167.317 65.5245 169.043C66.6983 170.398 71.6224 175.948 79.8092 180.915L77.4516 189.184L70.7768 195.035L25.8835 181.758L40.3174 132.224L89.518 146.876L89.4981 146.886Z" fill="#282828"/>
<path d="M89.1798 185.591L76.4568 196.731L75.4024 196.419L77.4516 189.214L84.1463 183.354C85.728 184.156 87.4091 184.909 89.1798 185.602V185.591Z" fill="#1D1D1B"/>
<path d="M88.941 94.2408C88.3939 93.6387 87.8368 93.0366 87.2897 92.4244C87.6777 92.2037 88.0656 92.003 88.4635 91.7922C88.5332 92.6352 88.6923 93.4581 88.941 94.2408Z" fill="#282828"/>
<path d="M95.6954 79.9105C90.9604 81.9276 88.0358 86.7646 88.4536 91.7922C88.0557 92.0029 87.6678 92.2137 87.2798 92.4244C87.5683 89.9457 87.6777 86.4033 86.7924 82.319C85.3798 75.8362 82.1767 71.3404 80.217 69.0022C84.4249 73.7589 89.717 77.5322 95.7054 79.9205L95.6954 79.9105Z" fill="#D9D9D9"/>
<path d="M87.6877 153.228L79.8092 180.925C71.6124 175.948 66.6884 170.408 65.5245 169.053C67.0266 167.327 74.8056 158.707 87.6877 153.238V153.228Z" fill="#D9D9D9"/>
<path d="M84.1463 183.344L77.4516 189.194L79.8092 180.925C81.172 181.758 82.6144 182.571 84.1463 183.344Z" fill="#F5F5F5"/>
<path d="M77.4417 189.204L75.3925 196.409L70.7668 195.045L77.4417 189.204Z" fill="#1D1D1B"/>
<path d="M75.3925 196.409L74.9249 198.055L55.378 215.165C53.0105 215.015 50.6629 214.854 48.3252 214.684L70.7669 195.045L75.3925 196.409Z" fill="#1D1D1B"/>
<path d="M74.9249 198.065L69.8318 215.978C64.9475 215.747 60.123 215.476 55.3879 215.165L74.9349 198.065H74.9249Z" fill="white"/>
<path d="M70.7669 195.045L48.3252 214.684C45.4006 214.463 42.5059 214.232 39.641 213.991C36.2489 195.546 34.1599 186.384 33.384 186.495C32.628 186.605 33.1254 195.637 34.8861 213.58C28.838 213.038 22.9092 212.446 17.1198 211.803L25.8736 181.768L70.7669 195.045Z" fill="white"/>
<path d="M70.0606 45.9513C70.9857 54.6518 74.5867 62.5496 80.0181 68.7714C70.9957 67.6274 64.9874 61.1346 65.1465 54.9328C65.2659 50.1862 68.9763 46.8645 70.0606 45.9513Z" fill="#D9D9D9"/>
<path d="M55.378 215.165L22.2626 244.137C21.2181 245.05 19.6365 244.94 18.7412 243.876C18.3334 243.404 18.1443 242.822 18.1443 242.24C18.1443 241.538 18.4328 240.835 19.0098 240.344L48.3451 214.684C50.6728 214.854 53.0304 215.015 55.3979 215.165H55.378Z" fill="#1D1D1B"/>
<path d="M44.6048 117.442L40.2975 132.224L28.072 128.591C29.5144 127.066 31.0065 125.761 32.5583 124.718C37.2138 121.617 43.421 118.095 43.421 118.095C43.8189 117.874 44.2069 117.653 44.6048 117.432V117.442Z" fill="#282828"/>
<path d="M40.2975 132.234L25.8636 181.768L7.08264 176.219C11.6386 158.587 18.5323 138.717 28.072 128.601L40.2975 132.244V132.234Z" fill="white"/>
<path d="M25.8736 181.768L17.1198 211.803C11.3601 211.171 5.73977 210.489 0.248718 209.756C0.746096 206.405 2.95445 192.235 7.09263 176.219L25.8736 181.768Z" fill="#282828"/>
</svg>
