<svg width="226" height="205" viewBox="0 0 226 205" fill="none" xmlns="http://www.w3.org/2000/svg">
<path d="M164.988 130.323L222.611 203.248L167.778 179.316L164.988 130.323Z" fill="#D9D9D9"/>
<path d="M203.984 96.3853L163.547 104.771H163.491L162.555 87.7737L185.375 85.814L203.984 96.3853Z" fill="#1D1D1B"/>
<path d="M185.375 85.8139L162.554 87.7736L161.656 72.3407L185.375 85.8139Z" fill="#D9D9D9"/>
<path d="M163.771 109.406L222.275 183.782L225.551 204.529L222.611 203.247L164.988 130.323L163.771 109.406Z" fill="#1D1D1B"/>
<path d="M164.988 130.323L167.778 179.316L138.217 192.959L113.824 173.663L114.704 125.857H114.816L144.32 113.665L164.988 130.323Z" fill="#282828"/>
<path d="M163.547 104.771L203.984 96.3853L208.945 99.1741L222.275 183.782L163.771 109.406L163.491 104.771H163.547Z" fill="#D9D9D9"/>
<path d="M161.656 72.3407L162.536 87.7736L161.656 87.8302L129.98 104.771C131.534 102.415 133.312 99.6828 135.315 96.5548C138.648 91.2974 141.643 86.3227 144.264 81.8567C150.105 78.7287 155.871 75.5441 161.656 72.3595V72.3407Z" fill="#282828"/>
<path d="M138.217 192.959L113.206 204.529L113.318 199.667L113.824 173.663L138.217 192.959Z" fill="#1D1D1B"/>
<path d="M129.999 104.771L161.675 87.8302L162.555 87.7737L163.491 104.771L163.771 109.406L164.988 130.323L144.32 113.665L114.816 125.857H114.704L114.816 119.77C118.204 119.601 121.424 117.528 129.98 104.789L129.999 104.771Z" fill="#1D1D1B"/>
<path d="M120.376 1.09292C141.718 4.67322 157.987 23.2907 157.987 45.7712C157.987 48.5601 157.537 53.5913 155.983 59.2444C153.643 67.5733 149.712 73.9425 146.436 78.2011C146.38 78.2576 146.38 78.3142 146.323 78.3707C145.649 79.4825 144.994 80.6696 144.264 81.8379C141.662 86.3039 138.648 91.2974 135.315 96.536C133.312 99.664 131.534 102.415 129.98 104.752C121.424 117.509 118.204 119.563 114.816 119.733C114.254 119.733 113.599 119.732 112.757 119.45C127.209 101.718 134.361 85.0037 138.03 74.1497C142.804 60.0547 146.698 48.6543 143.478 34.5027C139.303 16.0548 125.805 5.03125 120.357 1.05524L120.376 1.09292Z" fill="#D9D9D9"/>
<path d="M114.704 125.857L113.824 173.663L113.206 173.211L83.7203 123.784L114.704 125.857Z" fill="#F5F5F5"/>
<path d="M112.981 199.667H113.318L113.206 204.529L57.8292 179.316L62.0415 122.333L112.981 199.667Z" fill="#F5F5F5"/>
<path d="M114.704 125.857L83.7016 123.784L113.206 173.211L113.824 173.663L113.318 199.667H112.981L62.0414 122.333L63.3706 103.885L100.532 108.521C106.972 116.341 110.529 118.753 112.757 119.488C113.599 119.77 114.254 119.77 114.816 119.77L114.704 125.857Z" fill="#1D1D1B"/>
<path d="M80.8186 79.7651C84.6564 86.3604 89.6549 94.3124 96.0949 102.867C97.7049 104.997 99.2026 106.9 100.532 108.52L63.3706 103.885L65.7107 72.3407L79.8264 79.2752L80.8186 79.7839V79.7651Z" fill="#F5F5F5"/>
<path d="M113.206 63.0508C122.323 63.0508 129.643 55.6076 129.643 46.5061C129.643 37.4046 122.304 29.9048 113.206 29.9048C104.108 29.9048 96.7128 37.3481 96.7128 46.5061C96.7128 55.6641 104.108 63.0508 113.206 63.0508ZM69.9792 59.2444C68.4253 53.3086 67.976 48.2209 67.976 45.7712C67.9947 20.7845 88.1573 0.471069 112.981 0.471069C115.49 0.471069 117.98 0.697193 120.376 1.09291C125.824 5.06892 139.322 16.0736 143.497 34.5404C146.717 48.692 142.823 60.0924 138.049 74.1874C134.379 85.0413 127.209 101.756 112.775 119.488C110.548 118.753 106.991 116.359 100.551 108.521C99.2214 106.9 97.7237 104.997 96.1137 102.867C89.6737 94.3124 84.6751 86.3792 80.8373 79.7651L79.8451 79.2563C76.7374 75.0542 72.5627 68.3459 70.0166 59.2444H69.9792Z" fill="#D9D9D9"/>
<path d="M65.7108 72.3407L63.3706 103.866L12.4308 131.434L17.8224 99.174L65.7108 72.3407Z" fill="#D9D9D9"/>
<path d="M62.0414 122.333L57.8292 179.316L0.486755 202.513L9.37923 149.392L62.0414 122.333Z" fill="#D9D9D9"/>
<path d="M12.4307 131.434L63.3706 103.866L62.0414 122.333L9.37921 149.392L12.4307 131.434Z" fill="#1D1D1B"/>
<path d="M146.323 78.3707C145.593 79.3129 144.882 80.1609 144.264 80.8958" stroke="#D9D9D9" stroke-width="0.5" stroke-linecap="round" stroke-linejoin="round"/>
<path d="M80.5377 80.2174C80.3131 79.9347 80.0884 79.5955 79.8076 79.2752C76.6999 75.0731 72.5252 68.3647 69.9791 59.2632C68.4253 53.3275 67.976 48.2397 67.976 45.79C67.9947 20.7845 88.1572 0.471069 112.981 0.471069C115.49 0.471069 117.98 0.697193 120.376 1.09291C141.718 4.6732 157.987 23.2907 157.987 45.7712C157.987 48.56 157.537 53.5913 155.983 59.2444C153.643 67.5733 149.712 73.9424 146.436 78.2011" stroke="#D9D9D9" stroke-width="0.5" stroke-linecap="round" stroke-linejoin="round"/>
<path d="M146.323 78.3706C146.323 78.3706 146.38 78.2576 146.436 78.201" stroke="#D9D9D9" stroke-width="0.5" stroke-linecap="round" stroke-linejoin="round"/>
</svg>
