<svg width="40" height="40" viewBox="0 0 40 40" fill="none" xmlns="http://www.w3.org/2000/svg">
<path d="M15.5625 19.6C16.5915 21.7251 18.3098 23.439 20.4375 24.4625C20.5944 24.5369 20.768 24.569 20.9412 24.5559C21.1143 24.5427 21.2811 24.4847 21.425 24.3875L24.55 22.3C24.6881 22.2064 24.8476 22.1493 25.0137 22.134C25.1799 22.1187 25.3472 22.1457 25.5 22.2125L31.35 24.725C31.5499 24.8083 31.717 24.9549 31.8254 25.1424C31.9338 25.3298 31.9776 25.5477 31.95 25.7625C31.7646 27.2097 31.0582 28.5397 29.9631 29.5038C28.8679 30.4678 27.459 30.9997 26 31C21.4913 31 17.1673 29.209 13.9792 26.0209C10.7911 22.8327 9 18.5087 9 14C9.00033 12.541 9.53227 11.1321 10.4963 10.037C11.4603 8.94183 12.7903 8.23546 14.2375 8.05004C14.4523 8.02245 14.6702 8.06623 14.8577 8.17465C15.0452 8.28307 15.1918 8.4501 15.275 8.65004L17.7875 14.5125C17.8528 14.663 17.8802 14.8272 17.8671 14.9907C17.854 15.1541 17.8009 15.3119 17.7125 15.45L15.625 18.625C15.5321 18.7686 15.4775 18.9337 15.4666 19.1044C15.4556 19.2751 15.4887 19.4457 15.5625 19.6V19.6Z" stroke="#282828" stroke-linecap="round" stroke-linejoin="round"/>
<circle cx="20" cy="20" r="19.5" stroke="#282828"/>
</svg>
