<svg width="130" height="130" viewBox="0 0 130 130" fill="none" xmlns="http://www.w3.org/2000/svg">
<path d="M65 113.75C91.9239 113.75 113.75 91.9239 113.75 65C113.75 38.0761 91.9239 16.25 65 16.25C38.0761 16.25 16.25 38.0761 16.25 65C16.25 91.9239 38.0761 113.75 65 113.75Z" stroke="#282828" stroke-width="2" stroke-miterlimit="10"/>
<path d="M40.625 87.3438L48.75 77.1875L56.875 87.3438L65 77.1875L73.125 87.3438L81.25 77.1875L89.375 87.3438" stroke="#282828" stroke-width="2" stroke-linecap="round" stroke-linejoin="round"/>
<path d="M46.7188 60.9375C50.0842 60.9375 52.8125 58.2092 52.8125 54.8438C52.8125 51.4783 50.0842 48.75 46.7188 48.75C43.3533 48.75 40.625 51.4783 40.625 54.8438C40.625 58.2092 43.3533 60.9375 46.7188 60.9375Z" fill="#282828"/>
<path d="M83.2812 60.9375C86.6467 60.9375 89.375 58.2092 89.375 54.8438C89.375 51.4783 86.6467 48.75 83.2812 48.75C79.9158 48.75 77.1875 51.4783 77.1875 54.8438C77.1875 58.2092 79.9158 60.9375 83.2812 60.9375Z" fill="#282828"/>
</svg>
