<svg width="17" height="17" viewBox="0 0 17 17" fill="none" xmlns="http://www.w3.org/2000/svg">
<path d="M8.79218 12.6637L12.1391 14.7887C12.5707 15.061 13.1019 14.6559 12.9758 14.1578L12.0062 10.3461C11.98 10.2405 11.9842 10.1295 12.0183 10.0262C12.0523 9.92276 12.1149 9.8311 12.1988 9.76173L15.2004 7.25822C15.5922 6.93283 15.393 6.27541 14.8816 6.2422L10.9637 5.98986C10.8568 5.98364 10.754 5.94641 10.6679 5.88273C10.5818 5.81905 10.5161 5.73167 10.4789 5.63127L9.01797 1.95236C8.97929 1.84605 8.90884 1.75421 8.81618 1.68931C8.72352 1.62441 8.61313 1.5896 8.5 1.5896C8.38687 1.5896 8.27648 1.62441 8.18381 1.68931C8.09115 1.75421 8.0207 1.84605 7.98203 1.95236L6.52109 5.63127C6.48386 5.73167 6.41818 5.81905 6.33209 5.88273C6.246 5.94641 6.14323 5.98364 6.03633 5.98986L2.11836 6.2422C1.60703 6.27541 1.40781 6.93283 1.79961 7.25822L4.80117 9.76173C4.88506 9.8311 4.94765 9.92276 4.98172 10.0262C5.0158 10.1295 5.01996 10.2405 4.99375 10.3461L4.09726 13.8789C3.94453 14.4766 4.58203 14.9613 5.09336 14.636L8.20781 12.6637C8.29515 12.6082 8.3965 12.5787 8.5 12.5787C8.60349 12.5787 8.70485 12.6082 8.79218 12.6637V12.6637Z" stroke="#D9D9D9" stroke-linecap="round" stroke-linejoin="round"/>
</svg>
